<svg width="1440" height="1024" viewBox="0 0 1440 1024" fill="none" xmlns="http://www.w3.org/2000/svg">
<g clip-path="url(#clip0_7487_7555)">
<path opacity="0.154" fill-rule="evenodd" clip-rule="evenodd" d="M-217.58 475.75C-125.76 403.73 7.93999 446.37 123.62 431.01C240 415.56 372.33 315.14 466.77 384.9C569.67 460.92 511.51 631.66 557.08 751.21C586.91 829.45 647.56 887.35 686.56 961.44C744.48 1071.43 856.23 1169.67 842.46 1293.21C828.94 1414.47 739.04 1557.54 618.23 1574.58C476.27 1594.61 385.51 1353.62 244.17 1377.59C92.47 1403.32 71.49 1707.83 -81.68 1693.31C-210.28 1681.11 -192.58 1462.58 -209.83 1334.55C-221.99 1244.41 -143.96 1158.3 -165.73 1069.98C-192.15 962.78 -332.85 906.52 -342.45 796.53C-352.6 680.24 -309.44 547.78 -217.58 475.74V475.75Z" fill="#C4E4FF"/>
<path opacity="0.154" fill-rule="evenodd" clip-rule="evenodd" d="M1103.43 115.43C1249.85 95.98 1378.76 -40.41 1516.93 11.84C1705.02 82.97 1925.93 224.48 1923.99 425.72C1922.05 626.97 1664.71 704.32 1509.03 831.68C1379.03 938.03 1268.79 1126.07 1103.43 1096.98C939.73 1068.18 941.5 822.86 819.09 710.32C684.14 586.26 383.09 608.86 373.27 425.72C363.59 245.34 620.68 179.42 786.81 108.82C887.82 65.89 994.64 129.88 1103.43 115.43Z" fill="#D1BDF1"/>
</g>
<defs>
<clipPath id="clip0_7487_7555">
<rect width="1440" height="1024" fill="white"/>
</clipPath>
</defs>
</svg>
